<svg width="30" height="30" viewBox="0 0 30 30" fill="none" xmlns="http://www.w3.org/2000/svg">
<rect width="30" height="30" rx="4" fill="#FFF7ED" fill-opacity="0.46"/>
<g clip-path="url(#clip0_103_55)">
<path d="M22.6453 13.0328C22.3508 12.725 22.0461 12.4078 21.9312 12.1289C21.825 11.8734 21.8187 11.45 21.8125 11.0398C21.8008 10.2773 21.7883 9.41328 21.1875 8.8125C20.5867 8.21172 19.7227 8.19922 18.9602 8.1875C18.55 8.18125 18.1266 8.175 17.8711 8.06875C17.593 7.95391 17.275 7.64922 16.9672 7.35469C16.4281 6.83672 15.8156 6.25 15 6.25C14.1844 6.25 13.5727 6.83672 13.0328 7.35469C12.725 7.64922 12.4078 7.95391 12.1289 8.06875C11.875 8.175 11.45 8.18125 11.0398 8.1875C10.2773 8.19922 9.41328 8.21172 8.8125 8.8125C8.21172 9.41328 8.20312 10.2773 8.1875 11.0398C8.18125 11.45 8.175 11.8734 8.06875 12.1289C7.95391 12.407 7.64922 12.725 7.35469 13.0328C6.83672 13.5719 6.25 14.1844 6.25 15C6.25 15.8156 6.83672 16.4273 7.35469 16.9672C7.64922 17.275 7.95391 17.5922 8.06875 17.8711C8.175 18.1266 8.18125 18.55 8.1875 18.9602C8.19922 19.7227 8.21172 20.5867 8.8125 21.1875C9.41328 21.7883 10.2773 21.8008 11.0398 21.8125C11.45 21.8187 11.8734 21.825 12.1289 21.9312C12.407 22.0461 12.725 22.3508 13.0328 22.6453C13.5719 23.1633 14.1844 23.75 15 23.75C15.8156 23.75 16.4273 23.1633 16.9672 22.6453C17.275 22.3508 17.5922 22.0461 17.8711 21.9312C18.1266 21.825 18.55 21.8187 18.9602 21.8125C19.7227 21.8008 20.5867 21.7883 21.1875 21.1875C21.7883 20.5867 21.8008 19.7227 21.8125 18.9602C21.8187 18.55 21.825 18.1266 21.9312 17.8711C22.0461 17.593 22.3508 17.275 22.6453 16.9672C23.1633 16.4281 23.75 15.8156 23.75 15C23.75 14.1844 23.1633 13.5727 22.6453 13.0328ZM18.5672 13.5672L14.1922 17.9422C14.1341 18.0003 14.0652 18.0464 13.9893 18.0779C13.9135 18.1093 13.8321 18.1255 13.75 18.1255C13.6679 18.1255 13.5865 18.1093 13.5107 18.0779C13.4348 18.0464 13.3659 18.0003 13.3078 17.9422L11.4328 16.0672C11.3155 15.9499 11.2497 15.7909 11.2497 15.625C11.2497 15.4591 11.3155 15.3001 11.4328 15.1828C11.5501 15.0655 11.7091 14.9997 11.875 14.9997C12.0409 14.9997 12.1999 15.0655 12.3172 15.1828L13.75 16.6164L17.6828 12.6828C17.7409 12.6247 17.8098 12.5787 17.8857 12.5473C17.9616 12.5158 18.0429 12.4997 18.125 12.4997C18.2071 12.4997 18.2884 12.5158 18.3643 12.5473C18.4402 12.5787 18.5091 12.6247 18.5672 12.6828C18.6253 12.7409 18.6713 12.8098 18.7027 12.8857C18.7342 12.9616 18.7503 13.0429 18.7503 13.125C18.7503 13.2071 18.7342 13.2884 18.7027 13.3643C18.6713 13.4402 18.6253 13.5091 18.5672 13.5672Z" fill="#FFF7ED"/>
</g>
<defs>
<clipPath id="clip0_103_55">
<rect width="20" height="20" fill="white" transform="translate(5 5)"/>
</clipPath>
</defs>
</svg>
