<svg width="30" height="30" viewBox="0 0 30 30" fill="none" xmlns="http://www.w3.org/2000/svg">
<rect width="30" height="30" rx="4" fill="#FFF7ED" fill-opacity="0.46"/>
<g clip-path="url(#clip0_100_229)">
<path opacity="0.2" d="M10 15.0539L12.9953 12.0578C13.0534 11.9997 13.1223 11.9536 13.1982 11.9222C13.274 11.8907 13.3554 11.8745 13.4375 11.8745C13.5196 11.8745 13.601 11.8907 13.6768 11.9222C13.7527 11.9536 13.8216 11.9997 13.8797 12.0578L17.7586 15.9375L19.7656 13.9328C19.8828 13.8157 20.0417 13.7499 20.2074 13.7499C20.3731 13.7499 20.532 13.8157 20.6492 13.9328L22.5 15.7859V9.375C22.5 9.20924 22.4342 9.05027 22.3169 8.93306C22.1997 8.81585 22.0408 8.75 21.875 8.75H10.625C10.4592 8.75 10.3003 8.81585 10.1831 8.93306C10.0658 9.05027 10 9.20924 10 9.375V15.0539Z" fill="#FFF7ED"/>
<path d="M21.875 8.75H10.625C10.2798 8.75 10 9.02982 10 9.375V18.125C10 18.4702 10.2798 18.75 10.625 18.75H21.875C22.2202 18.75 22.5 18.4702 22.5 18.125V9.375C22.5 9.02982 22.2202 8.75 21.875 8.75Z" stroke="#FFF7ED" stroke-width="1.5" stroke-linecap="round" stroke-linejoin="round"/>
<path d="M18.4375 12.5C18.9553 12.5 19.375 12.0803 19.375 11.5625C19.375 11.0447 18.9553 10.625 18.4375 10.625C17.9197 10.625 17.5 11.0447 17.5 11.5625C17.5 12.0803 17.9197 12.5 18.4375 12.5Z" fill="#FFF7ED"/>
<path d="M10 15.0534L12.9953 12.0573C13.0534 11.9992 13.1223 11.9531 13.1982 11.9217C13.274 11.8902 13.3554 11.874 13.4375 11.874C13.5196 11.874 13.601 11.8902 13.6768 11.9217C13.7527 11.9531 13.8216 11.9992 13.8797 12.0573L17.7586 15.937L19.7656 13.9323C19.8828 13.8152 20.0417 13.7494 20.2074 13.7494C20.3731 13.7494 20.532 13.8152 20.6492 13.9323L22.5 15.7855" stroke="#FFF7ED" stroke-width="1.5" stroke-linecap="round" stroke-linejoin="round"/>
<path d="M20 18.75V20.625C20 20.7908 19.9342 20.9497 19.8169 21.0669C19.6997 21.1842 19.5408 21.25 19.375 21.25H8.125C7.95924 21.25 7.80027 21.1842 7.68306 21.0669C7.56585 20.9497 7.5 20.7908 7.5 20.625V11.875C7.5 11.7092 7.56585 11.5503 7.68306 11.4331C7.80027 11.3158 7.95924 11.25 8.125 11.25H10" stroke="#FFF7ED" stroke-width="1.5" stroke-linecap="round" stroke-linejoin="round"/>
</g>
<defs>
<clipPath id="clip0_100_229">
<rect width="20" height="20" fill="white" transform="translate(5 5)"/>
</clipPath>
</defs>
</svg>
